<svg width="512" height="278" viewBox="0 0 512 278" fill="none" xmlns="http://www.w3.org/2000/svg">
<path d="M290.908 215.045L288.002 205.359H211.808C204.809 205.359 200.12 198.165 202.945 191.762L255.067 73.6191H223.101L166.204 201.419C163.352 207.825 168.041 215.045 175.053 215.045H290.908Z" fill="black"/>
<path d="M220.195 64.9011L183.385 144.332L147.913 12.1983C146.261 6.04495 150.897 0 157.269 0H320.165C324.605 0 328.477 3.01835 329.56 7.32411L365.371 149.719C366.91 155.836 362.285 161.768 355.977 161.768H223.101L266.691 64.9011H220.195Z" fill="black"/>
<path d="M20.5591 277.691C17.6298 277.691 14.8995 277.221 12.368 276.281C9.87271 275.305 7.70289 273.93 5.85853 272.158C4.01418 270.386 2.56763 268.307 1.51888 265.92C0.506293 263.533 0 260.911 0 258.054C0 255.198 0.506293 252.576 1.51888 250.189C2.56763 247.802 4.01418 245.723 5.85853 243.951C7.73905 242.179 9.92696 240.822 12.4223 239.882C14.9176 238.906 17.6479 238.418 20.6134 238.418C23.9043 238.418 26.8697 238.996 29.5097 240.153C32.1858 241.274 34.4279 242.938 36.2361 245.144L30.5946 250.352C29.2927 248.869 27.8461 247.766 26.2549 247.043C24.6637 246.283 22.9278 245.903 21.0473 245.903C19.2753 245.903 17.6479 246.193 16.1652 246.771C14.6825 247.35 13.3987 248.182 12.3138 249.267C11.2289 250.352 10.379 251.635 9.76422 253.118C9.1856 254.601 8.89629 256.246 8.89629 258.054C8.89629 259.863 9.1856 261.508 9.76422 262.991C10.379 264.474 11.2289 265.757 12.3138 266.842C13.3987 267.927 14.6825 268.759 16.1652 269.338C17.6479 269.916 19.2753 270.206 21.0473 270.206C22.9278 270.206 24.6637 269.844 26.2549 269.121C27.8461 268.361 29.2927 267.222 30.5946 265.703L36.2361 270.911C34.4279 273.117 32.1858 274.798 29.5097 275.956C26.8697 277.113 23.8862 277.691 20.5591 277.691Z" fill="black"/>
<path d="M59.8194 277.691C56.8178 277.691 54.0332 277.203 51.4656 276.227C48.9341 275.25 46.7281 273.876 44.8476 272.104C43.0033 270.332 41.5567 268.253 40.508 265.866C39.4954 263.479 38.9891 260.875 38.9891 258.054C38.9891 255.234 39.4954 252.63 40.508 250.243C41.5567 247.856 43.0213 245.777 44.9019 244.005C46.7824 242.233 48.9884 240.859 51.5198 239.882C54.0513 238.906 56.7998 238.418 59.7652 238.418C62.7668 238.418 65.5152 238.906 68.0105 239.882C70.542 240.859 72.7299 242.233 74.5743 244.005C76.4548 245.777 77.9194 247.856 78.9682 250.243C80.0169 252.594 80.5413 255.198 80.5413 258.054C80.5413 260.875 80.0169 263.497 78.9682 265.92C77.9194 268.307 76.4548 270.386 74.5743 272.158C72.7299 273.894 70.542 275.25 68.0105 276.227C65.5152 277.203 62.7849 277.691 59.8194 277.691ZM59.7652 270.206C61.4649 270.206 63.0199 269.916 64.4303 269.338C65.8769 268.759 67.1426 267.927 68.2275 266.842C69.3124 265.757 70.1442 264.474 70.7228 262.991C71.3376 261.508 71.645 259.863 71.645 258.054C71.645 256.246 71.3376 254.601 70.7228 253.118C70.1442 251.635 69.3124 250.352 68.2275 249.267C67.1788 248.182 65.9311 247.35 64.4846 246.771C63.038 246.193 61.4649 245.903 59.7652 245.903C58.0655 245.903 56.4924 246.193 55.0458 246.771C53.6354 247.35 52.3878 248.182 51.3029 249.267C50.2179 250.352 49.3681 251.635 48.7533 253.118C48.1747 254.601 47.8854 256.246 47.8854 258.054C47.8854 259.826 48.1747 261.472 48.7533 262.991C49.3681 264.474 50.1999 265.757 51.2486 266.842C52.3335 267.927 53.5993 268.759 55.0458 269.338C56.4924 269.916 58.0655 270.206 59.7652 270.206Z" fill="black"/>
<path d="M87.1457 277.04V239.068H94.4146L110.58 265.866H106.728L122.622 239.068H129.837L129.946 277.04H121.7L121.646 251.708H123.165L110.471 273.026H106.511L93.5467 251.708H95.391V277.04H87.1457Z" fill="black"/>
<path d="M138.955 277.04V239.068H155.391C158.79 239.068 161.72 239.629 164.179 240.75C166.638 241.835 168.537 243.408 169.875 245.469C171.213 247.531 171.882 249.99 171.882 252.847C171.882 255.668 171.213 258.109 169.875 260.17C168.537 262.231 166.638 263.823 164.179 264.944C161.72 266.029 158.79 266.571 155.391 266.571H143.837L147.742 262.611V277.04H138.955ZM147.742 263.588L143.837 259.411H154.903C157.615 259.411 159.64 258.832 160.978 257.675C162.316 256.518 162.985 254.908 162.985 252.847C162.985 250.749 162.316 249.122 160.978 247.965C159.64 246.808 157.615 246.229 154.903 246.229H143.837L147.742 242.052V263.588Z" fill="black"/>
<path d="M194.814 277.691C189.426 277.691 185.213 276.191 182.175 273.189C179.137 270.187 177.618 265.902 177.618 260.333V239.068H186.406V260.007C186.406 263.624 187.147 266.227 188.63 267.819C190.113 269.41 192.192 270.206 194.868 270.206C197.544 270.206 199.624 269.41 201.107 267.819C202.589 266.227 203.331 263.624 203.331 260.007V239.068H212.01V260.333C212.01 265.902 210.491 270.187 207.453 273.189C204.416 276.191 200.202 277.691 194.814 277.691Z" fill="black"/>
<path d="M227.924 277.04V246.229H215.773V239.068H248.863V246.229H236.712V277.04H227.924Z" fill="black"/>
<path d="M261.674 254.366H279.954V261.201H261.674V254.366ZM262.325 269.989H282.992V277.04H253.591V239.068H282.287V246.12H262.325V269.989Z" fill="black"/>
<path d="M289.984 277.04V239.068H306.421C309.82 239.068 312.749 239.629 315.209 240.75C317.668 241.835 319.566 243.408 320.904 245.469C322.242 247.531 322.911 249.99 322.911 252.847C322.911 255.668 322.242 258.109 320.904 260.17C319.566 262.195 317.668 263.75 315.209 264.835C312.749 265.92 309.82 266.463 306.421 266.463H294.866L298.772 262.611V277.04H289.984ZM314.124 277.04L304.631 263.262H314.015L323.617 277.04H314.124ZM298.772 263.588L294.866 259.465H305.933C308.645 259.465 310.67 258.886 312.008 257.729C313.346 256.536 314.015 254.908 314.015 252.847C314.015 250.749 313.346 249.122 312.008 247.965C310.67 246.808 308.645 246.229 305.933 246.229H294.866L298.772 242.052V263.588Z" fill="black"/>
<path d="M342.35 277.691C339.313 277.691 336.402 277.294 333.617 276.498C330.832 275.666 328.59 274.599 326.89 273.297L329.874 266.68C331.501 267.837 333.418 268.795 335.624 269.555C337.866 270.278 340.126 270.639 342.405 270.639C344.141 270.639 345.533 270.477 346.582 270.151C347.667 269.79 348.462 269.301 348.968 268.687C349.475 268.072 349.728 267.367 349.728 266.571C349.728 265.558 349.33 264.763 348.534 264.184C347.739 263.569 346.69 263.081 345.388 262.72C344.086 262.322 342.64 261.96 341.049 261.635C339.494 261.273 337.92 260.839 336.329 260.333C334.774 259.826 333.346 259.176 332.044 258.38C330.742 257.584 329.675 256.536 328.843 255.234C328.048 253.932 327.65 252.268 327.65 250.243C327.65 248.073 328.228 246.102 329.386 244.33C330.579 242.522 332.351 241.094 334.702 240.045C337.089 238.96 340.072 238.418 343.652 238.418C346.039 238.418 348.39 238.707 350.704 239.285C353.019 239.828 355.062 240.66 356.834 241.781L354.122 248.453C352.35 247.44 350.578 246.699 348.806 246.229C347.034 245.723 345.298 245.469 343.598 245.469C341.898 245.469 340.506 245.668 339.421 246.066C338.336 246.464 337.559 246.988 337.089 247.639C336.618 248.254 336.383 248.977 336.383 249.809C336.383 250.786 336.781 251.581 337.577 252.196C338.372 252.775 339.421 253.245 340.723 253.606C342.025 253.968 343.453 254.33 345.008 254.691C346.6 255.053 348.173 255.469 349.728 255.939C351.319 256.409 352.766 257.042 354.068 257.837C355.369 258.633 356.418 259.682 357.214 260.984C358.046 262.286 358.461 263.931 358.461 265.92C358.461 268.054 357.865 270.007 356.671 271.779C355.478 273.551 353.688 274.979 351.301 276.064C348.95 277.149 345.967 277.691 342.35 277.691Z" fill="black"/>
<path d="M371.802 277.04V246.229H359.651V239.068H392.741V246.229H380.59V277.04H371.802Z" fill="black"/>
<path d="M415.383 277.691C412.381 277.691 409.597 277.203 407.029 276.227C404.498 275.25 402.292 273.876 400.411 272.104C398.567 270.332 397.12 268.253 396.071 265.866C395.059 263.479 394.553 260.875 394.553 258.054C394.553 255.234 395.059 252.63 396.071 250.243C397.12 247.856 398.585 245.777 400.465 244.005C402.346 242.233 404.552 240.859 407.083 239.882C409.615 238.906 412.363 238.418 415.329 238.418C418.33 238.418 421.079 238.906 423.574 239.882C426.105 240.859 428.293 242.233 430.138 244.005C432.018 245.777 433.483 247.856 434.532 250.243C435.58 252.594 436.105 255.198 436.105 258.054C436.105 260.875 435.58 263.497 434.532 265.92C433.483 268.307 432.018 270.386 430.138 272.158C428.293 273.894 426.105 275.25 423.574 276.227C421.079 277.203 418.348 277.691 415.383 277.691ZM415.329 270.206C417.028 270.206 418.583 269.916 419.994 269.338C421.44 268.759 422.706 267.927 423.791 266.842C424.876 265.757 425.708 264.474 426.286 262.991C426.901 261.508 427.209 259.863 427.209 258.054C427.209 256.246 426.901 254.601 426.286 253.118C425.708 251.635 424.876 250.352 423.791 249.267C422.742 248.182 421.495 247.35 420.048 246.771C418.602 246.193 417.028 245.903 415.329 245.903C413.629 245.903 412.056 246.193 410.609 246.771C409.199 247.35 407.951 248.182 406.866 249.267C405.781 250.352 404.932 251.635 404.317 253.118C403.738 254.601 403.449 256.246 403.449 258.054C403.449 259.826 403.738 261.472 404.317 262.991C404.932 264.474 405.763 265.757 406.812 266.842C407.897 267.927 409.163 268.759 410.609 269.338C412.056 269.916 413.629 270.206 415.329 270.206Z" fill="black"/>
<path d="M442.709 277.04V239.068H459.146C462.545 239.068 465.474 239.629 467.933 240.75C470.393 241.835 472.291 243.408 473.629 245.469C474.967 247.531 475.636 249.99 475.636 252.847C475.636 255.668 474.967 258.109 473.629 260.17C472.291 262.195 470.393 263.75 467.933 264.835C465.474 265.92 462.545 266.463 459.146 266.463H447.591L451.497 262.611V277.04H442.709ZM466.849 277.04L457.356 263.262H466.74L476.342 277.04H466.849ZM451.497 263.588L447.591 259.465H458.657C461.37 259.465 463.395 258.886 464.733 257.729C466.071 256.536 466.74 254.908 466.74 252.847C466.74 250.749 466.071 249.122 464.733 247.965C463.395 246.808 461.37 246.229 458.657 246.229H447.591L451.497 242.052V263.588Z" fill="black"/>
<path d="M490.681 254.366H508.962V261.201H490.681V254.366ZM491.332 269.989H512V277.04H482.599V239.068H511.295V246.12H491.332V269.989Z" fill="black"/>
</svg>
