<svg width="40" height="40" viewBox="0 0 40 40" fill="none" xmlns="http://www.w3.org/2000/svg">
<path d="M29.3333 32V29.3333C29.3333 27.9188 28.7714 26.5623 27.7712 25.5621C26.771 24.5619 25.4145 24 24 24H14.6666C13.2522 24 11.8956 24.5619 10.8954 25.5621C9.89522 26.5623 9.33331 27.9188 9.33331 29.3333V32" stroke="#333335" stroke-width="2" stroke-linecap="round" stroke-linejoin="round"/>
<path d="M20 18.6667C22.9455 18.6667 25.3334 16.2789 25.3334 13.3333C25.3334 10.3878 22.9455 8 20 8C17.0545 8 14.6667 10.3878 14.6667 13.3333C14.6667 16.2789 17.0545 18.6667 20 18.6667Z" stroke="#333335" stroke-width="2" stroke-linecap="round" stroke-linejoin="round"/>
<rect x="0.5" y="0.5" width="39" height="39" rx="14.5" stroke="#333335"/>
</svg>
