<svg width="10" height="10" viewBox="0 0 10 10" fill="none" xmlns="http://www.w3.org/2000/svg">
<path d="M5.20625 7.93907L7.56875 9.43907C7.87344 9.63126 8.24844 9.34532 8.15937 8.99376L7.475 6.30314C7.45649 6.22856 7.45944 6.15027 7.48349 6.07728C7.50754 6.0043 7.55172 5.9396 7.61094 5.89064L9.72969 4.12345C10.0062 3.89376 9.86562 3.4297 9.50469 3.40626L6.73906 3.22814C6.6636 3.22375 6.59105 3.19747 6.53028 3.15252C6.46951 3.10756 6.42316 3.04588 6.39687 2.97501L5.36562 0.378137C5.33833 0.303091 5.2886 0.238263 5.22319 0.192453C5.15778 0.146643 5.07985 0.12207 5 0.12207C4.92014 0.12207 4.84222 0.146643 4.77681 0.192453C4.7114 0.238263 4.66167 0.303091 4.63437 0.378137L3.60312 2.97501C3.57684 3.04588 3.53048 3.10756 3.46971 3.15252C3.40894 3.19747 3.3364 3.22375 3.26094 3.22814L0.49531 3.40626C0.134373 3.4297 -0.00625203 3.89376 0.27031 4.12345L2.38906 5.89064C2.44828 5.9396 2.49246 6.0043 2.51651 6.07728C2.54056 6.15027 2.5435 6.22856 2.525 6.30314L1.89219 8.79689C1.78437 9.21876 2.23437 9.56095 2.59531 9.33126L4.79375 7.93907C4.8554 7.89987 4.92694 7.87905 5 7.87905C5.07306 7.87905 5.1446 7.89987 5.20625 7.93907V7.93907Z" fill="#FF9F0F"/>
</svg>
